<?xml version="1.0" encoding="utf-8"?>
<svg version="1.1" id="Layer_1" xmlns="http://www.w3.org/2000/svg" xmlns:xlink="http://www.w3.org/1999/xlink" x="0px" y="0px"
	 viewBox="0 0 414.1 374" style="enable-background:new 0 0 414.1 374;" xml:space="preserve" height="70">
<style type="text/css">
	.st0{fill:#FFFFFF;}
</style>
<path class="st0" d="M408.7,276c-18,0-32.6-14.6-32.6-32.6c0-1.4-0.6-2.8-1.6-3.8s-2.4-1.6-3.8-1.6h-0.9c-2.9,0-5.3,2.4-5.3,5.3
	c0,18-14.6,32.6-32.6,32.6c-2.9,0-5.3,2.4-5.3,5.3c0,3,2.4,5.3,5.3,5.3c18,0,32.6,14.6,32.6,32.6c0,1.4,0.6,2.8,1.6,3.8
	s2.4,1.6,3.8,1.6h0.9c1.4,0,2.8-0.6,3.8-1.6s1.6-2.4,1.6-3.8c0-18,14.6-32.6,32.6-32.6c3,0,5.3-2.4,5.3-5.3
	C414.1,278.4,411.7,276,408.7,276L408.7,276z M370.3,299.4c-3.9-7.6-10.1-13.9-17.6-18c7.5-4.1,13.6-10.4,17.6-18
	c4,7.6,10.1,13.8,17.6,18C380.4,285.5,374.3,291.8,370.3,299.4z M245.8,142.9H106.3c-21.9,0-39.7,17.8-39.7,39.7v4.8
	c0,21.9,17.8,39.7,39.7,39.7h139.5c21.9,0,39.7-17.8,39.7-39.7v-4.8C285.5,160.7,267.7,142.9,245.8,142.9L245.8,142.9z M274.8,187.4
	L274.8,187.4c0,16-13,29-29,29.1H106.3c-16,0-29-13-29.1-29.1v-4.8c0-16,13-29,29.1-29h139.5c16,0,29,13,29,29L274.8,187.4z
	 M151.6,194.5c0,3-2.4,5.3-5.3,5.3c-2.9,0-5.3-2.4-5.3-5.3c-0.4-7.2-6.4-12.8-13.7-12.8s-13.2,5.6-13.7,12.8c0,3-2.4,5.3-5.3,5.3
	c-3,0-5.3-2.4-5.3-5.3c0.6-13,11.3-23.2,24.3-23.2S151,181.5,151.6,194.5L151.6,194.5z M249.3,194.5c0,3-2.4,5.3-5.3,5.3
	c-2.9,0-5.3-2.4-5.3-5.3c-0.5-7.2-6.4-12.8-13.7-12.8s-13.2,5.6-13.7,12.8c0,3-2.4,5.3-5.3,5.3c-2.9,0-5.3-2.4-5.3-5.3
	c0.6-13,11.3-23.2,24.4-23.2S248.7,181.5,249.3,194.5L249.3,194.5z M211.6,247c-0.7,19.1-16.4,34.1-35.5,34.1s-34.8-15.1-35.5-34.1
	c0-2.9,2.4-5.3,5.3-5.3c2.9,0,5.3,2.4,5.3,5.3c0.6,13.3,11.5,23.7,24.8,23.7s24.2-10.4,24.8-23.7c0-2.9,2.4-5.3,5.3-5.3
	S211.6,244.1,211.6,247L211.6,247z M332.7,255.3c10.7,0,19.4-8.7,19.4-19.4v-55.4c0-9-6.2-16.8-15-18.9
	c-1.3-41.9-18.8-81.6-48.9-110.8C258.2,21.6,218,5.2,176.1,5.2c-33.8-0.1-66.8,10.6-94.2,30.6c-4.1-5.6-6.3-12.4-6.3-19.4
	c0-1.4-0.6-2.8-1.6-3.8S71.7,11,70.2,11h-0.9c-2.9,0-5.3,2.4-5.3,5.3c0,18-14.6,32.6-32.6,32.6c-3,0-5.3,2.4-5.3,5.3
	c0,3,2.4,5.3,5.3,5.3c6.7,0,13.3,2.1,18.7,6c-21.8,27.3-34.2,61-35.2,96c-8.8,2-15,9.9-15,18.9v55.4c0,10.7,8.7,19.4,19.4,19.4H40
	v9.8c0,26.5,21.5,48,48,48h12.4l14.6,48h0c1.3,4.2,5,7.2,9.3,7.6h1c4,0,7.7-2.1,9.5-5.7l25.3-49.9h104.1c26.5,0,48-21.5,48-48v-9.9
	L332.7,255.3z M341.5,180.6l0,55.3c0,4.8-3.9,8.7-8.8,8.7h-20.6v-72.9h20.6C337.6,171.7,341.5,175.7,341.5,180.6L341.5,180.6z
	 M326.4,161.2h-14.3v-7.5c0-26.5-21.5-48-48-48h-82.7V78.6c9.1-2.7,14.8-11.6,13.5-20.9c-1.3-9.4-9.3-16.3-18.8-16.3
	c-9.5,0-17.5,6.9-18.8,16.3c-1.3,9.3,4.4,18.3,13.5,20.9v27.1H87.9c-26.5,0-48,21.5-48,48v7.4H25.7c1.1-31.9,12.3-62.6,32-87.6
	c4,5.5,6.2,12.2,6.2,19c0,1.4,0.6,2.8,1.6,3.8s2.4,1.6,3.8,1.6h0.9c1.4,0,2.8-0.6,3.8-1.6s1.6-2.4,1.6-3.8c0-18,14.6-32.6,32.6-32.6
	c2.9,0,5.3-2.4,5.3-5.3c0-3-2.4-5.3-5.3-5.3c-6.6-0.1-13-2.1-18.4-5.9c25.3-17.9,55.5-27.5,86.5-27.5c39,0.1,76.4,15.2,104.4,42.3
	c28,27.1,44.5,64,45.9,102.9L326.4,161.2z M177.1,68.8L177.1,68.8c-0.2,0-0.5,0-0.8,0c-0.2,0-0.5,0-0.7,0c-4.4-0.4-7.8-4.2-7.5-8.7
	c0.2-4.4,3.9-7.9,8.3-7.9c4.5,0,8.1,3.5,8.3,7.9C184.9,64.6,181.5,68.4,177.1,68.8L177.1,68.8z M70.1,36.8L70.1,36.8
	c1.9,3.5,4.1,6.7,6.8,9.6c3.1,3.2,6.7,6,10.7,8.2c-7.5,4.1-13.6,10.4-17.6,18c-2.2-4.1-5-7.8-8.3-11c0,0,0-0.3-0.4-0.4
	s-0.3,0-0.4-0.3v0c-2.6-2.4-5.4-4.5-8.5-6.2c7.4-4.2,13.5-10.4,17.4-18L70.1,36.8z M19.7,244.8L19.7,244.8c-4.8,0-8.7-3.9-8.7-8.7
	v-55.6c0-4.8,3.9-8.8,8.7-8.8h20.6v72.9L19.7,244.8z M301.4,265.1c0,9.9-3.9,19.4-10.9,26.4s-16.5,10.9-26.4,10.9h-104
	c-4,0-7.8,2.2-9.6,5.9l-25.3,49.9l-14.6-48h0c-1.3-4.6-5.5-7.8-10.2-7.8H87.9c-20.6,0-37.3-16.7-37.3-37.3V153.7
	c0-20.6,16.7-37.3,37.3-37.3h176.3c20.6,0,37.3,16.7,37.3,37.3L301.4,265.1z"/>
</svg>
