<?xml version="1.0" encoding="utf-8"?>
<svg version="1.1" id="Layer_1" xmlns="http://www.w3.org/2000/svg" xmlns:xlink="http://www.w3.org/1999/xlink" x="0px" y="0px"
	 viewBox="0 0 512 402" style="enable-background:new 0 0 512 402;" xml:space="preserve" height="70">
<style type="text/css">
	.st0{fill-rule:evenodd;clip-rule:evenodd;fill:#FFFFFF;}
</style>
<path class="st0" d="M292,310H37c-20,0-37-17-37-38V37C0,17,17,0,37,0h361c21,0,38,17,38,37v25c0,3-2,5-5,5s-5-2-5-5V37
	c0-15-13-27-28-27H37c-14,0-27,13-27,27v235c0,15,13,28,27,28h255c3,0,5,2,5,5S295,310,292,310z"/>
<path class="st0" d="M292,259H5c-3,0-5-2-5-5s2-5,5-5h287c3,0,5,2,5,5S295,259,292,259z"/>
<path class="st0" d="M285,370c-2,0-4-1-5-3l-21-60c-1-3,1-6,3-7c3-1,6,1,7,3l21,60c1,3-1,6-3,7H285z M150,370h-2c-2-1-4-4-3-7l22-60
	c1-2,4-4,7-3c2,1,4,4,3,7l-22,60C154,369,152,370,150,370z M184,370h-1c-3-1-5-4-4-7l9-29c1-2,3-3,5-3h50c2,0,4,1,5,4l8,29
	c0,2-1,5-4,6c-2,0-5-1-6-4l-7-25h-42l-8,25C188,368,186,370,184,370z"/>
<path class="st0" d="M326,402H119c-3,0-5-2-5-5v-16c0-11,10-21,21-21h157c3,0,5,2,5,5s-2,5-5,5H135c-6,0-11,6-11,11v11h202
	c3,0,5,2,5,5S329,402,326,402z"/>
<path class="st0" d="M90,310c-3,0-5-2-5-5v-51c0-3,2-5,5-5s5,2,5,5v51C95,308,93,310,90,310z"/>
<path class="st0" d="M431,51H5c-3,0-5-2-5-5s2-5,5-5h426c3,0,5,2,5,5S434,51,431,51z"/>
<path class="st0" d="M91,259c-3,0-5-2-5-5V46c0-3,2-5,5-5s5,2,5,5v208C96,257,94,259,91,259z"/>
<path class="st0" d="M72,80H24c-3,0-5-2-5-5s2-5,5-5h48c3,0,5,2,5,5S75,80,72,80z"/>
<path class="st0" d="M72,117H24c-3,0-5-2-5-5s2-5,5-5h48c3,0,5,2,5,5S75,117,72,117z"/>
<path class="st0" d="M63,155H24c-3,0-5-2-5-5s2-5,5-5h39c3,0,5,2,5,5S66,155,63,155z"/>
<path class="st0" d="M63,192H24c-3,0-5-2-5-5s2-5,5-5h39c3,0,5,2,5,5S66,192,63,192z"/>
<path class="st0" d="M63,230H24c-3,0-5-2-5-5s2-5,5-5h39c3,0,5,2,5,5S66,230,63,230z"/>
<path class="st0" d="M56,30H43c-3,0-5-2-5-5s2-5,5-5h13c3,0,5,2,5,5S59,30,56,30z"/>
<path class="st0" d="M89,30H75c-3,0-5-2-5-5s2-5,5-5h14c3,0,5,2,5,5S92,30,89,30z"/>
<path class="st0" d="M122,30h-14c-3,0-5-2-5-5s2-5,5-5h14c3,0,5,2,5,5S125,30,122,30z"/>
<path class="st0" d="M460,402H326c-22,0-39-17-39-38V95c0-21,17-38,39-38h134c21,0,39,17,39,38v269C499,385,481,402,460,402z
	 M326,67c-16,0-29,13-29,28v269c0,15,13,28,29,28h134c16,0,29-13,29-28V95c0-15-13-28-29-28H326z"/>
<path class="st0" d="M460,387H326c-13,0-24-11-24-23V95c0-12,11-23,24-23h134c13,0,24,11,24,23v269C484,376,473,387,460,387z
	 M326,82c-8,0-14,6-14,13v269c0,7,6,13,14,13h134c7,0,14-6,14-13V95c0-7-7-13-14-13H326z"/>
<path class="st0" d="M393,113c-8,0-13-6-13-14c0-6,5-13,13-13s13,7,13,13C406,107,400,113,393,113z M393,96c-2,0-3,2-3,3s0,4,3,4
	s3-3,3-4S395,96,393,96z"/>
<path class="st0" d="M507,164h-13c-3,0-5-2-5-5s2-5,5-5h8v-29h-8c-3,0-5-2-5-5s2-5,5-5h13c3,0,5,2,5,5v39C512,162,510,164,507,164z"
	/>
<path class="st0" d="M507,217h-13c-3,0-5-2-5-5s2-5,5-5h8v-28h-8c-3,0-5-2-5-5s2-5,5-5h13c3,0,5,2,5,5v38C512,215,510,217,507,217z"
	/>
<path class="st0" d="M507,288h-13c-3,0-5-2-5-5s2-5,5-5h8v-28h-8c-3,0-5-2-5-5s2-5,5-5h13c3,0,5,2,5,5v38C512,286,510,288,507,288z"
	/>
<path class="st0" d="M456,225H330c-3,0-5-2-5-5v-71c0-3,2-5,5-5h126c3,0,5,2,5,5v71C461,223,459,225,456,225z M335,215h116v-61H335
	V215z"/>
<path class="st0" d="M456,225c-1,0-2,0-3-1l-125-71c-3-1-4-4-2-6c1-3,4-4,6-2l126,71c3,1,4,4,2,6C459,224,458,225,456,225z"/>
<path class="st0" d="M330,225c-2,0-3-1-4-3c-2-2-1-5,1-6l126-71c3-2,6-1,7,2c2,2,1,5-2,6l-126,71C332,225,331,225,330,225z"/>
<path class="st0" d="M393,315h-63c-3,0-5-2-5-5v-71c0-3,2-5,5-5h63c3,0,5,2,5,5v71C398,313,396,315,393,315z M335,305h53v-61h-53
	V305z"/>
<path class="st0" d="M393,315c-1,0-3-1-4-2l-63-71c-2-2-1-5,1-7s5-1,7,1l63,71c2,2,1,5-1,7C395,315,394,315,393,315z"/>
<path class="st0" d="M330,315c-1,0-2,0-3-1c-2-2-3-5-1-7l63-71c2-3,5-3,7-1s3,5,1,7l-63,71C333,314,331,315,330,315z"/>
<path class="st0" d="M456,247h-45c-3,0-5-2-5-5s2-5,5-5h45c3,0,5,2,5,5S459,247,456,247z"/>
<path class="st0" d="M456,270h-45c-3,0-5-2-5-5s2-5,5-5h45c3,0,5,2,5,5S459,270,456,270z"/>
<path class="st0" d="M456,292h-45c-3,0-5-2-5-5s2-5,5-5h45c3,0,5,2,5,5S459,292,456,292z"/>
<path class="st0" d="M456,315h-45c-3,0-5-2-5-5s2-5,5-5h45c3,0,5,2,5,5S459,315,456,315z"/>
</svg>
