<?xml version="1.0" encoding="utf-8"?>
<svg version="1.1" id="Layer_1" xmlns="http://www.w3.org/2000/svg" xmlns:xlink="http://www.w3.org/1999/xlink" x="0px" y="0px"
	 viewBox="0 0 409.6 409.4" style="enable-background:new 0 0 409.6 409.4;" xml:space="preserve" height="70">
<style type="text/css">
	.st0{fill:#FFFFFF;}
</style>
<path class="st0" d="M404.7,0H4.9C2.2,0,0,2.2,0,4.9v311.8c0,2.7,2.2,4.9,4.9,4.9h83.5l0,48.2c0,2.7,2.2,4.9,4.9,4.9h23.2v23
	c0,2.7,2.2,4.9,4.9,4.9h208c2.7,0,4.9-2.2,4.9-4.9v-76.2h70.5c1.3,0,2.6-0.5,3.5-1.4c0.9-0.9,1.4-2.2,1.4-3.5V4.9
	c0-1.3-0.5-2.6-1.4-3.5S406,0,404.7,0L404.7,0z M399.8,9.8l0,57H9.8v-57L399.8,9.8z M98.1,143.7h33.5c2.7,0,4.9-2.2,4.9-4.9v-33.5
	h159.9v151l-10.6,18.3c-0.2,0.4-0.4,0.7-0.5,1.1l-6.1,22.2l-6,22.3c-0.6,2.1,0.4,4.4,2.3,5.5c1.9,1.1,4.3,0.8,5.9-0.8l15-15.1V365
	H98.1L98.1,143.7z M105.1,133.9l21.6-21.6v21.6H105.1z M306.2,133.3h18.2v74.5l-18.2,31.4V133.3z M374.9,167.2L371,174l-11.9-6.9
	l4-6.8c2.4-4.1,6.1-5.6,7.5-4.8l4.8,2.8h0c0.8,0.6,1.2,1.6,1.2,2.6C376.6,163.2,376.1,165.4,374.9,167.2L374.9,167.2z M354.2,175.7
	l11.9,6.9l-57.4,99.5l-11.9-6.8L354.2,175.7z M290.8,301.7l-3.3,3.3l5.6-20.6l9.4,5.4L290.8,301.7z M324.4,392.9l-198.2,0v-18.2
	h175.1c2.7,0,4.9-2.2,4.9-4.9V300l7.7-7.8h0c0.3-0.3,0.5-0.6,0.8-1l9.7-16.8L324.4,392.9z M334.2,311.8v-54.4l49.3-85.3
	c2.2-3.6,3.2-7.8,2.9-12c-0.2-4.2-2.5-8-6-10.2l-4.8-2.8c-6.7-3.9-15.9-0.2-20.9,8.4l-20.4,35.4v-62.4c0-2.7-2.2-4.9-4.9-4.9h-23
	v-23.2c0-2.7-2.2-4.9-4.9-4.9H131.6c-1.3,0-2.5,0.5-3.5,1.4l-38.4,38.4c-0.9,0.9-1.4,2.2-1.4,3.5v173.1H9.8V76.6h390v235.3
	L334.2,311.8z M51.4,54.1c6.4,0,12.2-3.9,14.7-9.8c2.5-5.9,1.1-12.8-3.4-17.3c-4.5-4.5-11.4-5.9-17.3-3.4c-5.9,2.5-9.8,8.2-9.8,14.7
	C35.5,47,42.7,54.1,51.4,54.1L51.4,54.1z M51.4,32.2L51.4,32.2c2.5,0,4.7,1.5,5.6,3.8c1,2.3,0.4,4.9-1.3,6.6
	c-1.7,1.7-4.3,2.3-6.6,1.3c-2.3-0.9-3.7-3.1-3.7-5.6C45.4,34.9,48.1,32.2,51.4,32.2L51.4,32.2z M102,54.1c6.4,0,12.2-3.9,14.7-9.8
	c2.5-5.9,1.1-12.8-3.4-17.3c-4.5-4.5-11.4-5.9-17.3-3.4c-5.9,2.5-9.8,8.2-9.8,14.7C86.1,47,93.2,54.1,102,54.1L102,54.1z M102,32.2
	L102,32.2c2.5,0,4.7,1.5,5.6,3.8c0.9,2.3,0.4,4.9-1.3,6.6c-1.7,1.7-4.4,2.3-6.6,1.3c-2.3-0.9-3.7-3.1-3.7-5.6
	C95.9,34.9,98.6,32.2,102,32.2L102,32.2z M152.6,54.1c6.4,0,12.2-3.9,14.7-9.8c2.5-5.9,1.1-12.8-3.4-17.3
	c-4.5-4.5-11.4-5.9-17.3-3.4c-5.9,2.5-9.8,8.2-9.8,14.7C136.7,47,143.8,54.1,152.6,54.1L152.6,54.1z M152.6,32.2L152.6,32.2
	c2.5,0,4.7,1.5,5.6,3.8c0.9,2.3,0.4,4.9-1.3,6.6c-1.7,1.7-4.4,2.3-6.6,1.3s-3.7-3.1-3.7-5.6C146.5,34.9,149.2,32.2,152.6,32.2
	L152.6,32.2z M242.1,54.2h127c2.7,0,4.9-2.2,4.9-4.9v-22c0-2.7-2.2-4.9-4.9-4.9h-127c-2.7,0-4.9,2.2-4.9,4.9v22
	c0,1.3,0.5,2.5,1.4,3.5C239.5,53.7,240.8,54.2,242.1,54.2L242.1,54.2z M247,32.2h117.2v12.2H247V32.2z M119.6,163.5
	c0-2.7,2.2-4.9,4.9-4.9h72.7c2.7,0,4.9,2.2,4.9,4.9c0,2.7-2.2,4.9-4.9,4.9h-72.7C121.8,168.4,119.6,166.2,119.6,163.5z M119.6,199.6
	L119.6,199.6c0-2.7,2.2-4.9,4.9-4.9H270c2.7,0,4.9,2.2,4.9,4.9s-2.2,4.9-4.9,4.9H124.5C121.8,204.5,119.7,202.3,119.6,199.6
	L119.6,199.6z M119.6,235.7L119.6,235.7c0-2.7,2.2-4.9,4.9-4.9H270c2.7,0,4.9,2.2,4.9,4.9c0,2.7-2.2,4.9-4.9,4.9H124.5
	C121.8,240.5,119.7,238.4,119.6,235.7L119.6,235.7z M119.6,271.8L119.6,271.8c0-2.7,2.2-4.9,4.9-4.9H270c2.7,0,4.9,2.2,4.9,4.9
	s-2.2,4.9-4.9,4.9H124.5C121.8,276.6,119.7,274.5,119.6,271.8L119.6,271.8z M178.2,140.2l95.6,0c2.7,0,4.9-2.2,4.9-4.9V120
	c0-2.7-2.2-4.9-4.9-4.9h-95.6c-2.7,0-4.9,2.2-4.9,4.9v15.3c0,1.3,0.5,2.5,1.4,3.5C175.7,139.7,176.9,140.2,178.2,140.2L178.2,140.2z
	 M183.1,124.9l85.8,0v5.5h-85.8V124.9z M119.6,307.9c0-2.7,2.2-4.9,4.9-4.9h119.3c2.7,0,4.9,2.2,4.9,4.9s-2.2,4.9-4.9,4.9H124.5
	c-1.3,0-2.5-0.5-3.5-1.4S119.6,309.2,119.6,307.9L119.6,307.9z M274.9,343.9c0,2.7-2.2,4.9-4.9,4.9H124.5c-2.7,0-4.9-2.2-4.9-4.9
	s2.2-4.9,4.9-4.9H270c1.3,0,2.5,0.5,3.5,1.4S274.9,342.6,274.9,343.9L274.9,343.9z M92.7,100.2c0,2.7-2.2,4.9-4.9,4.9H34.9
	c-2.7,0-4.9-2.2-4.9-4.9s2.2-4.9,4.9-4.9h52.9c1.3,0,2.6,0.5,3.5,1.4C92.2,97.6,92.7,98.9,92.7,100.2L92.7,100.2z M74.5,137.4
	c0,2.7-2.2,4.9-4.9,4.9H34.9c-1.3,0-2.6-0.5-3.6-1.4c-1-0.9-1.5-2.2-1.5-3.5c0-1.3,0.5-2.6,1.5-3.5c0.9-0.9,2.2-1.4,3.6-1.4h34.8
	C72.4,132.5,74.5,134.7,74.5,137.4z M74.5,174.6c0,2.7-2.2,4.9-4.9,4.9H34.9c-2.7,0-4.9-2.2-4.9-4.9c0-2.7,2.2-4.9,4.9-4.9h34.8
	c1.3,0,2.5,0.5,3.5,1.4C74.1,172,74.6,173.3,74.5,174.6L74.5,174.6z M74.5,211.8c0,2.7-2.2,4.9-4.9,4.9H34.9c-1.3,0-2.6-0.5-3.6-1.4
	c-1-0.9-1.5-2.2-1.5-3.5c0-1.3,0.5-2.6,1.5-3.5c0.9-0.9,2.2-1.4,3.6-1.4h34.8c1.3,0,2.5,0.5,3.5,1.4S74.6,210.5,74.5,211.8
	L74.5,211.8z M74.5,249L74.5,249c0,2.7-2.2,4.9-4.9,4.9H34.9c-2.7,0-4.9-2.2-4.9-4.9c0-2.7,2.2-4.9,4.9-4.9h34.8
	c1.3,0,2.5,0.5,3.5,1.4S74.6,247.7,74.5,249L74.5,249z M74.5,286.2L74.5,286.2c0,2.7-2.2,4.9-4.9,4.9H34.9c-1.3,0-2.6-0.5-3.6-1.4
	c-1-0.9-1.5-2.2-1.5-3.5c0-1.3,0.5-2.6,1.5-3.5c0.9-0.9,2.2-1.4,3.6-1.4h34.8c1.3,0,2.5,0.5,3.5,1.4S74.6,284.9,74.5,286.2
	L74.5,286.2z"/>
</svg>
