<?xml version="1.0" encoding="UTF-8"?>
<svg id="Layer_1" data-name="Layer 1" xmlns="http://www.w3.org/2000/svg" viewBox="0 0 379.64 426.24" width="70"  x="0px" y="0px">
  <path d="m204.28,39.14h132.74c2.94,0,5.34-2.38,5.34-5.34s-2.4-5.32-5.34-5.32h-132.74c-2.96,0-5.34,2.38-5.34,5.32s2.38,5.34,5.34,5.34h0Z" style="fill: #fff; stroke-width: 0px;"/>
  <path d="m363.64,0H16C7.18,0,0,7.16,0,16v301.34-.02c0,8.84,7.18,16,16,16h82.2c2.62,5.88,7.44,10.52,13.44,12.92v64c0,8.82,7.16,16,16,16h124.48c8.82,0,16-7.18,16-16v-64c5.96-2.38,10.78-6.96,13.44-12.8h82.08c8.82,0,16-7.18,16-16V16c0-8.84-7.18-16-16-16h0ZM16.02,10.66h347.62c1.4,0,2.76.56,3.76,1.56s1.56,2.36,1.56,3.78v42.24H10.68V16c0-2.96,2.38-5.34,5.32-5.34h.02Zm90.54,255.58h166.46v29.38H106.62l-.06-29.38Zm44.32,40h33.6v17.22c0,7.78-6.3,14.08-14.08,14.08h-5.34.02c-7.78,0-14.08-6.3-14.08-14.08l-.13-17.22Zm44.26,0h33.6v17.22h.02c0,7.78-6.32,14.08-14.08,14.08h-5.34c-3.8.02-7.44-1.48-10.12-4.18-2.68-2.7-4.14-6.36-4.06-10.16l-.02-16.96Zm-88.52,16.96v-17.24h33.6v17.24c0,7.76-6.3,14.08-14.08,14.08h-5.66c-7.68-.12-13.86-6.4-13.86-14.08h0Zm45.5,48h22.94v44.16h-22.9l-.04-44.16Zm100,44.1h-66.4v-44.32c0-2.82-1.14-5.54-3.14-7.54s-4.7-3.12-7.54-3.12h-22.92c-5.9,0-10.68,4.76-10.68,10.66v44.16h-13.92c-2.94,0-5.32-2.38-5.32-5.34v-61.86h3.84c7.6-.02,14.76-3.56,19.4-9.6,4.64,6.04,11.82,9.58,19.42,9.6h5.34c7.68.04,14.94-3.5,19.62-9.6,4.64,6.04,11.8,9.58,19.42,9.6h5.34-.02c7.62-.02,14.78-3.56,19.42-9.6,4.64,6.04,11.8,9.58,19.42,9.6h3.84v61.98c-.06,2.82-2.3,5.1-5.12,5.22v.16Zm20.9-92.1c0,7.68-6.18,13.96-13.86,14.08h-5.34c-7.78,0-14.08-6.32-14.08-14.08v-17.24h33.6l-.33,17.24Zm90.66-.54h-80v-56.74c0-2.84-1.12-5.54-3.12-7.54s-4.72-3.14-7.54-3.14H106.56c-5.88,0-10.66,4.78-10.66,10.68v56.74H15.9c-2.94,0-5.34-2.38-5.34-5.34V68.91h358.4v248.42c0,1.42-.56,2.78-1.56,3.78s-2.36,1.56-3.76,1.56h.04Z" style="fill: #fff; stroke-width: 0px;"/>
  <path d="m238.88,360.36h-39.3c-2.94,0-5.34,2.4-5.34,5.34v29.34c0,1.4.56,2.76,1.56,3.76s2.36,1.56,3.78,1.56h39.3c1.42,0,2.78-.56,3.78-1.56s1.56-2.36,1.56-3.76v-29.34c0-1.42-.56-2.78-1.56-3.78s-2.36-1.56-3.78-1.56h0Zm-5.34,29.34h-28.62v-18.66h28.64l-.02,18.66Z" style="fill: #fff; stroke-width: 0px;"/>
  <path d="m42.2,114.12h15.58l14.02,52.7c1.24,4.7,5.48,7.96,10.34,7.94h50.08c4.44.04,8.42-2.68,10.02-6.82l11.94-30.82h.02c1.28-3.3.86-7.02-1.14-9.92-2-2.92-5.3-4.66-8.84-4.64h-49.12c-2.94,0-5.34,2.38-5.34,5.32s2.4,5.34,5.34,5.34h49.18l-12.06,30.94h-50.14l-14.02-52.6c-1.24-4.68-5.5-7.96-10.34-7.94h-15.52c-2.96,0-5.34,2.38-5.34,5.34s2.38,5.32,5.34,5.32v-.16Z" style="fill: #fff; stroke-width: 0px;"/>
  <path d="m81.08,189.28c0,2.94,1.76,5.6,4.48,6.74,2.72,1.12,5.86.52,7.94-1.54,2.1-2.08,2.76-5.2,1.66-7.92-1.1-2.74-3.72-4.56-6.68-4.6-1.94-.02-3.84.74-5.22,2.1-1.4,1.38-2.18,3.26-2.18,5.22h0Z" style="fill: #fff; stroke-width: 0px;"/>
  <path d="m113.72,189.28c0,2.94,1.78,5.62,4.5,6.74,2.74,1.14,5.88.5,7.96-1.58,2.1-2.08,2.72-5.24,1.6-7.96-1.14-2.74-3.8-4.52-6.76-4.52-1.94,0-3.8.78-5.16,2.14-1.38,1.38-2.14,3.24-2.14,5.18h0Z" style="fill: #fff; stroke-width: 0px;"/>
  <path d="m333.82,97.38h-143.58c-5.88,0-10.66,4.78-10.66,10.66v29.02c0,2.82,1.12,5.54,3.12,7.54s4.72,3.12,7.54,3.12h143.58c2.82,0,5.54-1.12,7.54-3.12s3.12-4.72,3.12-7.54v-29.02c0-2.82-1.12-5.54-3.12-7.54s-4.72-3.12-7.54-3.12h0Zm-143.58,39.68v-29.02h143.58v29.02h-143.58Z" style="fill: #fff; stroke-width: 0px;"/>
  <path d="m339.16,163.36h-154.24c-2.96,0-5.34,2.38-5.34,5.32s2.38,5.34,5.34,5.34h154.24c2.94,0,5.32-2.38,5.32-5.34s-2.38-5.32-5.32-5.32Z" style="fill: #fff; stroke-width: 0px;"/>
  <path d="m339.16,189.64h-154.24c-2.96,0-5.34,2.4-5.34,5.34s2.38,5.34,5.34,5.34h154.24c2.94,0,5.32-2.4,5.32-5.34s-2.38-5.34-5.32-5.34Z" style="fill: #fff; stroke-width: 0px;"/>
  <path d="m338.62,218.24H41.02c-2.94,0-5.34,2.38-5.34,5.32s2.4,5.34,5.34,5.34h297.6c2.94,0,5.34-2.38,5.34-5.34s-2.4-5.32-5.34-5.32Z" style="fill: #fff; stroke-width: 0px;"/>
  <path d="m78.84,40.96c2.86-.14,5.36-1.96,6.36-4.64s.32-5.7-1.74-7.66c-2.08-1.98-5.12-2.54-7.76-1.42-2.62,1.12-4.34,3.7-4.34,6.56.04,1.94.86,3.78,2.26,5.12,1.4,1.34,3.28,2.08,5.22,2.04h0Z" style="fill: #fff; stroke-width: 0px;"/>
  <path d="m44.06,40.96c2.86-.14,5.36-1.96,6.38-4.64,1-2.68.3-5.7-1.76-7.66-2.06-1.98-5.12-2.54-7.74-1.42-2.64,1.12-4.34,3.7-4.34,6.56.04,1.94.84,3.78,2.24,5.12s3.28,2.08,5.22,2.04h0Z" style="fill: #fff; stroke-width: 0px;"/>
  <path d="m113.66,40.96c2.86-.14,5.36-1.96,6.38-4.64,1-2.68.3-5.7-1.76-7.66-2.06-1.98-5.12-2.54-7.74-1.42-2.64,1.12-4.34,3.7-4.34,6.56.04,1.94.84,3.78,2.24,5.12,1.4,1.34,3.28,2.08,5.22,2.04h0Z" style="fill: #fff; stroke-width: 0px;"/>
</svg>